<mxfile host="app.diagrams.net" agent="Mozilla/5.0 (Windows NT 10.0; Win64; x64) AppleWebKit/537.36 (KHTML, like Gecko) Chrome/131.0.0.0 Safari/537.36" version="26.0.4">
  <diagram name="페이지-1" id="R6UscsuwygDOBOQ2WdLZ">
    <mxGraphModel dx="3033" dy="1148" grid="1" gridSize="10" guides="1" tooltips="1" connect="1" arrows="1" fold="1" page="1" pageScale="1" pageWidth="827" pageHeight="1169" math="0" shadow="0">
      <root>
        <mxCell id="0" />
        <mxCell id="1" parent="0" />
        <mxCell id="AAlg2MMWl-rsjKI6dOD7-78" value="" style="group" vertex="1" connectable="0" parent="1">
          <mxGeometry x="320.0000000000002" y="1520" width="200" height="920" as="geometry" />
        </mxCell>
        <mxCell id="AAlg2MMWl-rsjKI6dOD7-79" value="" style="shape=umlLifeline;perimeter=lifelinePerimeter;whiteSpace=wrap;html=1;container=1;dropTarget=0;collapsible=0;recursiveResize=0;outlineConnect=0;portConstraint=eastwest;newEdgeStyle={&quot;curved&quot;:0,&quot;rounded&quot;:0};size=0;" vertex="1" parent="AAlg2MMWl-rsjKI6dOD7-78">
          <mxGeometry y="40" width="200" height="880" as="geometry" />
        </mxCell>
        <mxCell id="AAlg2MMWl-rsjKI6dOD7-80" value="createNewFile" style="html=1;whiteSpace=wrap;fillColor=#dae8fc;strokeColor=#6c8ebf;" vertex="1" parent="AAlg2MMWl-rsjKI6dOD7-78">
          <mxGeometry width="200" height="40" as="geometry" />
        </mxCell>
        <mxCell id="AAlg2MMWl-rsjKI6dOD7-73" value="" style="group" vertex="1" connectable="0" parent="1">
          <mxGeometry x="2.2737367544323206e-13" y="1520" width="200" height="840" as="geometry" />
        </mxCell>
        <mxCell id="AAlg2MMWl-rsjKI6dOD7-74" value="" style="shape=umlLifeline;perimeter=lifelinePerimeter;whiteSpace=wrap;html=1;container=1;dropTarget=0;collapsible=0;recursiveResize=0;outlineConnect=0;portConstraint=eastwest;newEdgeStyle={&quot;curved&quot;:0,&quot;rounded&quot;:0};size=0;" vertex="1" parent="AAlg2MMWl-rsjKI6dOD7-73">
          <mxGeometry y="40" width="200" height="800" as="geometry" />
        </mxCell>
        <mxCell id="AAlg2MMWl-rsjKI6dOD7-75" value="getDBCanvas" style="html=1;whiteSpace=wrap;fillColor=#dae8fc;strokeColor=#6c8ebf;" vertex="1" parent="AAlg2MMWl-rsjKI6dOD7-73">
          <mxGeometry width="200" height="40" as="geometry" />
        </mxCell>
        <mxCell id="ijIBmjhym2byQwiykt7W-40" value="PaintJSState" style="rounded=1;whiteSpace=wrap;html=1;" parent="1" vertex="1">
          <mxGeometry x="-10" y="41.5" width="120" height="60" as="geometry" />
        </mxCell>
        <mxCell id="ijIBmjhym2byQwiykt7W-41" style="edgeStyle=orthogonalEdgeStyle;rounded=0;orthogonalLoop=1;jettySize=auto;html=1;" parent="1" source="ijIBmjhym2byQwiykt7W-42" target="ijIBmjhym2byQwiykt7W-40" edge="1">
          <mxGeometry relative="1" as="geometry" />
        </mxCell>
        <mxCell id="ijIBmjhym2byQwiykt7W-42" value="paint src" style="rounded=1;whiteSpace=wrap;html=1;" parent="1" vertex="1">
          <mxGeometry x="-430" y="41.5" width="120" height="60" as="geometry" />
        </mxCell>
        <mxCell id="ijIBmjhym2byQwiykt7W-43" style="edgeStyle=orthogonalEdgeStyle;rounded=0;orthogonalLoop=1;jettySize=auto;html=1;" parent="1" source="ijIBmjhym2byQwiykt7W-47" target="ijIBmjhym2byQwiykt7W-42" edge="1">
          <mxGeometry relative="1" as="geometry">
            <mxPoint x="-370" y="231.5" as="sourcePoint" />
          </mxGeometry>
        </mxCell>
        <mxCell id="ijIBmjhym2byQwiykt7W-44" style="rounded=0;orthogonalLoop=1;jettySize=auto;html=1;" parent="1" source="ijIBmjhym2byQwiykt7W-46" target="ijIBmjhym2byQwiykt7W-42" edge="1">
          <mxGeometry relative="1" as="geometry" />
        </mxCell>
        <mxCell id="ijIBmjhym2byQwiykt7W-45" style="rounded=0;orthogonalLoop=1;jettySize=auto;html=1;" parent="1" source="ijIBmjhym2byQwiykt7W-46" target="ijIBmjhym2byQwiykt7W-47" edge="1">
          <mxGeometry relative="1" as="geometry">
            <mxPoint x="-310" y="238.5" as="targetPoint" />
          </mxGeometry>
        </mxCell>
        <mxCell id="ijIBmjhym2byQwiykt7W-46" value="initApp,initSesstion" style="rounded=1;whiteSpace=wrap;html=1;" parent="1" vertex="1">
          <mxGeometry x="-240" y="151.5" width="150" height="60" as="geometry" />
        </mxCell>
        <mxCell id="ijIBmjhym2byQwiykt7W-47" value="default state" style="rounded=1;whiteSpace=wrap;html=1;" parent="1" vertex="1">
          <mxGeometry x="-430" y="230" width="120" height="60" as="geometry" />
        </mxCell>
        <mxCell id="ijIBmjhym2byQwiykt7W-90" style="edgeStyle=orthogonalEdgeStyle;rounded=0;orthogonalLoop=1;jettySize=auto;html=1;" parent="1" source="ijIBmjhym2byQwiykt7W-66" target="ijIBmjhym2byQwiykt7W-89" edge="1">
          <mxGeometry relative="1" as="geometry" />
        </mxCell>
        <mxCell id="ijIBmjhym2byQwiykt7W-66" value="Paint" style="rounded=1;whiteSpace=wrap;html=1;" parent="1" vertex="1">
          <mxGeometry x="707" y="660" width="120" height="60" as="geometry" />
        </mxCell>
        <mxCell id="ijIBmjhym2byQwiykt7W-120" value="get" style="rounded=0;orthogonalLoop=1;jettySize=auto;html=1;" parent="1" source="ijIBmjhym2byQwiykt7W-88" target="ijIBmjhym2byQwiykt7W-112" edge="1">
          <mxGeometry relative="1" as="geometry" />
        </mxCell>
        <mxCell id="ijIBmjhym2byQwiykt7W-88" value="paint src" style="rounded=1;whiteSpace=wrap;html=1;fillColor=#f8cecc;strokeColor=#b85450;" parent="1" vertex="1">
          <mxGeometry x="140" y="660" width="120" height="60" as="geometry" />
        </mxCell>
        <mxCell id="ijIBmjhym2byQwiykt7W-91" style="edgeStyle=orthogonalEdgeStyle;rounded=0;orthogonalLoop=1;jettySize=auto;html=1;" parent="1" source="ijIBmjhym2byQwiykt7W-89" target="XYFyysq1rzf5MoELiQKB-8" edge="1">
          <mxGeometry relative="1" as="geometry">
            <mxPoint x="540" y="790" as="targetPoint" />
          </mxGeometry>
        </mxCell>
        <mxCell id="ijIBmjhym2byQwiykt7W-115" value="" style="rounded=0;orthogonalLoop=1;jettySize=auto;html=1;" parent="1" source="ijIBmjhym2byQwiykt7W-89" target="ijIBmjhym2byQwiykt7W-112" edge="1">
          <mxGeometry relative="1" as="geometry" />
        </mxCell>
        <mxCell id="ijIBmjhym2byQwiykt7W-89" value="createApp" style="rounded=1;whiteSpace=wrap;html=1;" parent="1" vertex="1">
          <mxGeometry x="540" y="660" width="120" height="60" as="geometry" />
        </mxCell>
        <mxCell id="ijIBmjhym2byQwiykt7W-110" value="&amp;lt;&amp;lt;singleton&amp;gt;&amp;gt;&lt;br&gt;paintJS_state" style="rounded=1;whiteSpace=wrap;html=1;fillColor=#e1d5e7;strokeColor=#9673a6;" parent="1" vertex="1">
          <mxGeometry x="970" y="850" width="120" height="60" as="geometry" />
        </mxCell>
        <mxCell id="ijIBmjhym2byQwiykt7W-112" value="&amp;lt;&amp;lt;singleton&amp;gt;&amp;gt;&lt;br&gt;paintJS_state" style="rounded=1;whiteSpace=wrap;html=1;fillColor=#e1d5e7;strokeColor=#9673a6;" parent="1" vertex="1">
          <mxGeometry x="350" y="508.5" width="120" height="60" as="geometry" />
        </mxCell>
        <mxCell id="ijIBmjhym2byQwiykt7W-128" style="rounded=0;orthogonalLoop=1;jettySize=auto;html=1;" parent="1" source="ijIBmjhym2byQwiykt7W-89" target="ijIBmjhym2byQwiykt7W-134" edge="1">
          <mxGeometry relative="1" as="geometry">
            <mxPoint x="670" y="914.0285714285715" as="targetPoint" />
            <mxPoint x="600" y="508.5" as="sourcePoint" />
          </mxGeometry>
        </mxCell>
        <mxCell id="XYFyysq1rzf5MoELiQKB-12" style="edgeStyle=orthogonalEdgeStyle;rounded=0;orthogonalLoop=1;jettySize=auto;html=1;" parent="1" source="ijIBmjhym2byQwiykt7W-134" target="ijIBmjhym2byQwiykt7W-88" edge="1">
          <mxGeometry relative="1" as="geometry" />
        </mxCell>
        <mxCell id="ijIBmjhym2byQwiykt7W-134" value="default state" style="rounded=1;whiteSpace=wrap;html=1;" parent="1" vertex="1">
          <mxGeometry x="540" y="780" width="120" height="60" as="geometry" />
        </mxCell>
        <mxCell id="XYFyysq1rzf5MoELiQKB-6" value="상태 구독" style="edgeStyle=orthogonalEdgeStyle;rounded=0;orthogonalLoop=1;jettySize=auto;html=1;" parent="1" source="XYFyysq1rzf5MoELiQKB-2" target="ijIBmjhym2byQwiykt7W-110" edge="1">
          <mxGeometry relative="1" as="geometry" />
        </mxCell>
        <mxCell id="XYFyysq1rzf5MoELiQKB-7" value="그림판 실행" style="edgeStyle=orthogonalEdgeStyle;rounded=0;orthogonalLoop=1;jettySize=auto;html=1;" parent="1" source="XYFyysq1rzf5MoELiQKB-2" target="ijIBmjhym2byQwiykt7W-66" edge="1">
          <mxGeometry relative="1" as="geometry" />
        </mxCell>
        <mxCell id="XYFyysq1rzf5MoELiQKB-2" value="Application" style="rounded=1;whiteSpace=wrap;html=1;" parent="1" vertex="1">
          <mxGeometry x="707" y="850" width="120" height="60" as="geometry" />
        </mxCell>
        <mxCell id="XYFyysq1rzf5MoELiQKB-9" style="edgeStyle=orthogonalEdgeStyle;rounded=0;orthogonalLoop=1;jettySize=auto;html=1;" parent="1" source="XYFyysq1rzf5MoELiQKB-8" target="ijIBmjhym2byQwiykt7W-88" edge="1">
          <mxGeometry relative="1" as="geometry" />
        </mxCell>
        <mxCell id="XYFyysq1rzf5MoELiQKB-10" style="edgeStyle=orthogonalEdgeStyle;rounded=0;orthogonalLoop=1;jettySize=auto;html=1;" parent="1" source="XYFyysq1rzf5MoELiQKB-8" target="ijIBmjhym2byQwiykt7W-112" edge="1">
          <mxGeometry relative="1" as="geometry" />
        </mxCell>
        <mxCell id="XYFyysq1rzf5MoELiQKB-8" value="init app,&lt;div&gt;init session&lt;/div&gt;" style="rounded=1;whiteSpace=wrap;html=1;" parent="1" vertex="1">
          <mxGeometry x="350" y="660" width="120" height="60" as="geometry" />
        </mxCell>
        <mxCell id="XYFyysq1rzf5MoELiQKB-11" value="&lt;font style=&quot;font-size: 36px;&quot;&gt;PaintJS 의존성&lt;/font&gt;" style="text;html=1;align=center;verticalAlign=middle;resizable=0;points=[];autosize=1;strokeColor=none;fillColor=none;" parent="1" vertex="1">
          <mxGeometry x="465" y="370" width="270" height="60" as="geometry" />
        </mxCell>
        <mxCell id="AAlg2MMWl-rsjKI6dOD7-99" style="edgeStyle=orthogonalEdgeStyle;rounded=0;orthogonalLoop=1;jettySize=auto;html=1;" edge="1" parent="1" source="AAlg2MMWl-rsjKI6dOD7-38" target="AAlg2MMWl-rsjKI6dOD7-98">
          <mxGeometry relative="1" as="geometry" />
        </mxCell>
        <mxCell id="AAlg2MMWl-rsjKI6dOD7-38" value="새로운 키 만들기" style="rounded=0;whiteSpace=wrap;html=1;" vertex="1" parent="1">
          <mxGeometry x="320" y="1600" width="200" height="60" as="geometry" />
        </mxCell>
        <mxCell id="AAlg2MMWl-rsjKI6dOD7-39" value="새로운 레이어 만들기" style="rounded=0;whiteSpace=wrap;html=1;" vertex="1" parent="1">
          <mxGeometry x="320" y="1840" width="200" height="60" as="geometry" />
        </mxCell>
        <mxCell id="AAlg2MMWl-rsjKI6dOD7-40" value="기본세팅 하기" style="rounded=0;whiteSpace=wrap;html=1;" vertex="1" parent="1">
          <mxGeometry x="320" y="2200" width="200" height="60" as="geometry" />
        </mxCell>
        <mxCell id="AAlg2MMWl-rsjKI6dOD7-41" value="레이어를 레이어영역에 추가" style="rounded=0;whiteSpace=wrap;html=1;" vertex="1" parent="1">
          <mxGeometry x="320" y="2080" width="200" height="60" as="geometry" />
        </mxCell>
        <mxCell id="AAlg2MMWl-rsjKI6dOD7-42" value="현재 상태를 DB에 저장" style="rounded=0;whiteSpace=wrap;html=1;" vertex="1" parent="1">
          <mxGeometry x="320" y="2320" width="200" height="60" as="geometry" />
        </mxCell>
        <mxCell id="AAlg2MMWl-rsjKI6dOD7-43" value="새로운 파일 만들기" style="rounded=0;whiteSpace=wrap;html=1;" vertex="1" parent="1">
          <mxGeometry x="320" y="1720" width="200" height="60" as="geometry" />
        </mxCell>
        <mxCell id="AAlg2MMWl-rsjKI6dOD7-77" style="edgeStyle=orthogonalEdgeStyle;rounded=0;orthogonalLoop=1;jettySize=auto;html=1;" edge="1" parent="1" source="AAlg2MMWl-rsjKI6dOD7-46" target="AAlg2MMWl-rsjKI6dOD7-75">
          <mxGeometry relative="1" as="geometry" />
        </mxCell>
        <mxCell id="AAlg2MMWl-rsjKI6dOD7-46" value="앱 시작" style="rounded=0;whiteSpace=wrap;html=1;" vertex="1" parent="1">
          <mxGeometry y="1400" width="200" height="60" as="geometry" />
        </mxCell>
        <mxCell id="AAlg2MMWl-rsjKI6dOD7-89" style="edgeStyle=orthogonalEdgeStyle;rounded=0;orthogonalLoop=1;jettySize=auto;html=1;" edge="1" parent="1" source="AAlg2MMWl-rsjKI6dOD7-48" target="AAlg2MMWl-rsjKI6dOD7-80">
          <mxGeometry relative="1" as="geometry">
            <Array as="points">
              <mxPoint x="260" y="1750" />
              <mxPoint x="260" y="1540" />
            </Array>
          </mxGeometry>
        </mxCell>
        <mxCell id="AAlg2MMWl-rsjKI6dOD7-48" value="파일키를 통해 파일 불러오기" style="rounded=0;whiteSpace=wrap;html=1;" vertex="1" parent="1">
          <mxGeometry y="1720" width="200" height="60" as="geometry" />
        </mxCell>
        <mxCell id="AAlg2MMWl-rsjKI6dOD7-90" style="edgeStyle=orthogonalEdgeStyle;rounded=0;orthogonalLoop=1;jettySize=auto;html=1;" edge="1" parent="1" source="AAlg2MMWl-rsjKI6dOD7-49" target="AAlg2MMWl-rsjKI6dOD7-80">
          <mxGeometry relative="1" as="geometry">
            <Array as="points">
              <mxPoint x="260" y="1870" />
              <mxPoint x="260" y="1540" />
            </Array>
          </mxGeometry>
        </mxCell>
        <mxCell id="AAlg2MMWl-rsjKI6dOD7-49" value="파일에 있는 레이어 불러오기" style="rounded=0;whiteSpace=wrap;html=1;" vertex="1" parent="1">
          <mxGeometry y="1840" width="200" height="60" as="geometry" />
        </mxCell>
        <mxCell id="AAlg2MMWl-rsjKI6dOD7-50" value="레이어 데이터를 캔버스UI로 바꾸기" style="rounded=0;whiteSpace=wrap;html=1;" vertex="1" parent="1">
          <mxGeometry y="1960" width="200" height="60" as="geometry" />
        </mxCell>
        <mxCell id="AAlg2MMWl-rsjKI6dOD7-51" value="레이어를 레이어영역에 추가" style="rounded=0;whiteSpace=wrap;html=1;" vertex="1" parent="1">
          <mxGeometry y="2080" width="200" height="60" as="geometry" />
        </mxCell>
        <mxCell id="AAlg2MMWl-rsjKI6dOD7-52" value="기본세팅 하기" style="rounded=0;whiteSpace=wrap;html=1;" vertex="1" parent="1">
          <mxGeometry y="2200" width="200" height="60" as="geometry" />
        </mxCell>
        <mxCell id="AAlg2MMWl-rsjKI6dOD7-81" style="edgeStyle=orthogonalEdgeStyle;rounded=0;orthogonalLoop=1;jettySize=auto;html=1;entryX=0;entryY=0.5;entryDx=0;entryDy=0;" edge="1" parent="1" source="AAlg2MMWl-rsjKI6dOD7-64" target="AAlg2MMWl-rsjKI6dOD7-80">
          <mxGeometry relative="1" as="geometry" />
        </mxCell>
        <mxCell id="AAlg2MMWl-rsjKI6dOD7-64" value="최근 파일 키 불러오기" style="rounded=0;whiteSpace=wrap;html=1;" vertex="1" parent="1">
          <mxGeometry y="1600" width="200" height="60" as="geometry" />
        </mxCell>
        <mxCell id="AAlg2MMWl-rsjKI6dOD7-94" value="Error" style="shape=hexagon;perimeter=hexagonPerimeter2;whiteSpace=wrap;html=1;fixedSize=1;fillColor=#f8cecc;strokeColor=#b85450;" vertex="1" parent="1">
          <mxGeometry x="220" y="1850" width="80" height="40" as="geometry" />
        </mxCell>
        <mxCell id="AAlg2MMWl-rsjKI6dOD7-96" value="Error" style="shape=hexagon;perimeter=hexagonPerimeter2;whiteSpace=wrap;html=1;fixedSize=1;fillColor=#f8cecc;strokeColor=#b85450;" vertex="1" parent="1">
          <mxGeometry x="220" y="1730" width="80" height="40" as="geometry" />
        </mxCell>
        <mxCell id="AAlg2MMWl-rsjKI6dOD7-97" value="Error" style="shape=hexagon;perimeter=hexagonPerimeter2;whiteSpace=wrap;html=1;fixedSize=1;fillColor=#f8cecc;strokeColor=#b85450;" vertex="1" parent="1">
          <mxGeometry x="220" y="1610" width="80" height="40" as="geometry" />
        </mxCell>
        <mxCell id="AAlg2MMWl-rsjKI6dOD7-98" value="키 저장" style="rounded=0;whiteSpace=wrap;html=1;" vertex="1" parent="1">
          <mxGeometry x="560" y="1610" width="70" height="40" as="geometry" />
        </mxCell>
      </root>
    </mxGraphModel>
  </diagram>
</mxfile>
